<svg id="wave" style="transform:rotate(0deg); transition: 0.3s" viewBox="0 0 1440 490" version="1.1" xmlns="http://www.w3.org/2000/svg"><defs><linearGradient id="sw-gradient-0" x1="0" x2="0" y1="1" y2="0"><stop stop-color="rgba(234, 195, 0, 1)" offset="0%"></stop><stop stop-color="rgba(255, 179, 11, 1)" offset="100%"></stop></linearGradient></defs><path style="transform:translate(0, 0px); opacity:1" fill="url(#sw-gradient-0)" d="M0,49L80,89.8C160,131,320,212,480,212.3C640,212,800,131,960,147C1120,163,1280,278,1440,334.8C1600,392,1760,392,1920,392C2080,392,2240,392,2400,375.7C2560,359,2720,327,2880,261.3C3040,196,3200,98,3360,73.5C3520,49,3680,98,3840,130.7C4000,163,4160,180,4320,163.3C4480,147,4640,98,4800,106.2C4960,114,5120,180,5280,245C5440,310,5600,376,5760,351.2C5920,327,6080,212,6240,212.3C6400,212,6560,327,6720,310.3C6880,294,7040,147,7200,89.8C7360,33,7520,65,7680,130.7C7840,196,8000,294,8160,334.8C8320,376,8480,359,8640,302.2C8800,245,8960,147,9120,163.3C9280,180,9440,310,9600,326.7C9760,343,9920,245,10080,187.8C10240,131,10400,114,10560,138.8C10720,163,10880,229,11040,245C11200,261,11360,229,11440,212.3L11520,196L11520,490L11440,490C11360,490,11200,490,11040,490C10880,490,10720,490,10560,490C10400,490,10240,490,10080,490C9920,490,9760,490,9600,490C9440,490,9280,490,9120,490C8960,490,8800,490,8640,490C8480,490,8320,490,8160,490C8000,490,7840,490,7680,490C7520,490,7360,490,7200,490C7040,490,6880,490,6720,490C6560,490,6400,490,6240,490C6080,490,5920,490,5760,490C5600,490,5440,490,5280,490C5120,490,4960,490,4800,490C4640,490,4480,490,4320,490C4160,490,4000,490,3840,490C3680,490,3520,490,3360,490C3200,490,3040,490,2880,490C2720,490,2560,490,2400,490C2240,490,2080,490,1920,490C1760,490,1600,490,1440,490C1280,490,1120,490,960,490C800,490,640,490,480,490C320,490,160,490,80,490L0,490Z"></path><defs><linearGradient id="sw-gradient-1" x1="0" x2="0" y1="1" y2="0"><stop stop-color="rgba(243, 106, 62, 1)" offset="0%"></stop><stop stop-color="rgba(168, 79, 148, 1)" offset="100%"></stop></linearGradient></defs><path style="transform:translate(0, 50px); opacity:0.9" fill="url(#sw-gradient-1)" d="M0,196L80,204.2C160,212,320,229,480,196C640,163,800,82,960,57.2C1120,33,1280,65,1440,114.3C1600,163,1760,229,1920,253.2C2080,278,2240,261,2400,269.5C2560,278,2720,310,2880,343C3040,376,3200,408,3360,400.2C3520,392,3680,343,3840,285.8C4000,229,4160,163,4320,130.7C4480,98,4640,98,4800,106.2C4960,114,5120,131,5280,163.3C5440,196,5600,245,5760,236.8C5920,229,6080,163,6240,138.8C6400,114,6560,131,6720,114.3C6880,98,7040,49,7200,98C7360,147,7520,294,7680,318.5C7840,343,8000,245,8160,220.5C8320,196,8480,245,8640,285.8C8800,327,8960,359,9120,359.3C9280,359,9440,327,9600,294C9760,261,9920,229,10080,179.7C10240,131,10400,65,10560,106.2C10720,147,10880,294,11040,367.5C11200,441,11360,441,11440,441L11520,441L11520,490L11440,490C11360,490,11200,490,11040,490C10880,490,10720,490,10560,490C10400,490,10240,490,10080,490C9920,490,9760,490,9600,490C9440,490,9280,490,9120,490C8960,490,8800,490,8640,490C8480,490,8320,490,8160,490C8000,490,7840,490,7680,490C7520,490,7360,490,7200,490C7040,490,6880,490,6720,490C6560,490,6400,490,6240,490C6080,490,5920,490,5760,490C5600,490,5440,490,5280,490C5120,490,4960,490,4800,490C4640,490,4480,490,4320,490C4160,490,4000,490,3840,490C3680,490,3520,490,3360,490C3200,490,3040,490,2880,490C2720,490,2560,490,2400,490C2240,490,2080,490,1920,490C1760,490,1600,490,1440,490C1280,490,1120,490,960,490C800,490,640,490,480,490C320,490,160,490,80,490L0,490Z"></path></svg>